<?xml version="1.0" encoding="UTF-8" standalone="no"?>
<!DOCTYPE svg PUBLIC "-//W3C//DTD SVG 1.1//EN"
 "http://www.w3.org/Graphics/SVG/1.1/DTD/svg11.dtd">
<!-- Generated by graphviz version 9.0.0 (20230911.1827)
 -->
<!-- Title: G Pages: 1 -->
<svg width="223pt" height="137pt"
 viewBox="0.00 0.00 223.21 136.84" xmlns="http://www.w3.org/2000/svg" xmlns:xlink="http://www.w3.org/1999/xlink">
<g id="graph0" class="graph" transform="scale(1 1) rotate(0) translate(4 132.84)">
<title>G</title>
<polygon fill="white" stroke="none" points="-4,4 -4,-132.84 219.21,-132.84 219.21,4 -4,4"/>
<!-- 0 -->
<g id="node1" class="node">
<title>0</title>
<ellipse fill="none" stroke="orangered" stroke-width="0.1" cx="12.48" cy="-83.4" rx="12.48" ry="10.8"/>
<text text-anchor="middle" x="12.48" y="-81.65" font-family="monospace" font-size="5.00" fill="mediumslateblue">0</text>
</g>
<!-- 3 -->
<g id="node4" class="node">
<title>3</title>
<ellipse fill="none" stroke="orangered" stroke-width="0.1" cx="85.79" cy="-102.92" rx="12.48" ry="10.8"/>
<text text-anchor="middle" x="85.79" y="-101.17" font-family="monospace" font-size="5.00" fill="mediumslateblue">3</text>
</g>
<!-- 0&#45;&#45;3 -->
<g id="edge3" class="edge">
<title>0&#45;&#45;3</title>
<path fill="none" stroke="orange" stroke-width="0.05" d="M24.25,-86.54C38.02,-90.2 60.64,-96.22 74.28,-99.85"/>
<text text-anchor="middle" x="47.02" y="-93.9" font-family="monospace" font-size="4.00">34</text>
</g>
<!-- 5 -->
<g id="node6" class="node">
<title>5</title>
<ellipse fill="none" stroke="orangered" stroke-width="0.1" cx="83.5" cy="-65.92" rx="12.48" ry="10.8"/>
<text text-anchor="middle" x="83.5" y="-64.17" font-family="monospace" font-size="5.00" fill="mediumslateblue">5</text>
</g>
<!-- 0&#45;&#45;5 -->
<g id="edge1" class="edge">
<title>0&#45;&#45;5</title>
<path fill="none" stroke="orange" stroke-width="0.05" d="M24.2,-80.52C37.28,-77.29 58.33,-72.11 71.51,-68.87"/>
<text text-anchor="middle" x="45.61" y="-75.39" font-family="monospace" font-size="4.00">43</text>
</g>
<!-- 7 -->
<g id="node8" class="node">
<title>7</title>
<ellipse fill="none" stroke="orangered" stroke-width="0.1" cx="59.13" cy="-23.63" rx="12.48" ry="10.8"/>
<text text-anchor="middle" x="59.13" y="-21.88" font-family="monospace" font-size="5.00" fill="mediumslateblue">7</text>
</g>
<!-- 0&#45;&#45;7 -->
<g id="edge2" class="edge">
<title>0&#45;&#45;7</title>
<path fill="none" stroke="yellow" stroke-width="2" d="M19.36,-74.58C28.18,-63.28 43.39,-43.81 52.22,-32.49"/>
<text text-anchor="middle" x="33.54" y="-54.24" font-family="monospace" font-size="4.00">29</text>
</g>
<!-- 1 -->
<g id="node2" class="node">
<title>1</title>
<ellipse fill="none" stroke="orangered" stroke-width="0.1" cx="202.74" cy="-47.4" rx="12.48" ry="10.8"/>
<text text-anchor="middle" x="202.74" y="-45.65" font-family="monospace" font-size="5.00" fill="mediumslateblue">1</text>
</g>
<!-- 2 -->
<g id="node3" class="node">
<title>2</title>
<ellipse fill="none" stroke="orangered" stroke-width="0.1" cx="155.72" cy="-118.04" rx="12.48" ry="10.8"/>
<text text-anchor="middle" x="155.72" y="-116.29" font-family="monospace" font-size="5.00" fill="mediumslateblue">2</text>
</g>
<!-- 1&#45;&#45;2 -->
<g id="edge4" class="edge">
<title>1&#45;&#45;2</title>
<path fill="none" stroke="yellow" stroke-width="2" d="M196.59,-56.63C187.53,-70.25 170.69,-95.54 161.72,-109.03"/>
<text text-anchor="middle" x="176.9" y="-83.53" font-family="monospace" font-size="4.00">24</text>
</g>
<!-- 4 -->
<g id="node5" class="node">
<title>4</title>
<ellipse fill="none" stroke="orangered" stroke-width="0.1" cx="140.14" cy="-59.91" rx="12.48" ry="10.8"/>
<text text-anchor="middle" x="140.14" y="-58.16" font-family="monospace" font-size="5.00" fill="mediumslateblue">4</text>
</g>
<!-- 1&#45;&#45;4 -->
<g id="edge5" class="edge">
<title>1&#45;&#45;4</title>
<path fill="none" stroke="orange" stroke-width="0.05" d="M190.67,-49.81C179.58,-52.02 163.24,-55.29 152.17,-57.5"/>
<text text-anchor="middle" x="169.17" y="-54.36" font-family="monospace" font-size="4.00">43</text>
</g>
<!-- 6 -->
<g id="node7" class="node">
<title>6</title>
<ellipse fill="none" stroke="orangered" stroke-width="0.1" cx="125.85" cy="-10.8" rx="12.48" ry="10.8"/>
<text text-anchor="middle" x="125.85" y="-9.05" font-family="monospace" font-size="5.00" fill="mediumslateblue">6</text>
</g>
<!-- 1&#45;&#45;6 -->
<g id="edge6" class="edge">
<title>1&#45;&#45;6</title>
<path fill="none" stroke="yellow" stroke-width="2" d="M192.05,-42.31C177.36,-35.32 151.09,-22.81 136.45,-15.85"/>
<text text-anchor="middle" x="162" y="-29.78" font-family="monospace" font-size="4.00">25</text>
</g>
<!-- 2&#45;&#45;3 -->
<g id="edge7" class="edge">
<title>2&#45;&#45;3</title>
<path fill="none" stroke="orange" stroke-width="0.05" d="M143.86,-115.48C130.92,-112.68 110.34,-108.23 97.48,-105.44"/>
<text text-anchor="middle" x="118.42" y="-111.16" font-family="monospace" font-size="4.00">40</text>
</g>
<!-- 2&#45;&#45;4 -->
<g id="edge9" class="edge">
<title>2&#45;&#45;4</title>
<path fill="none" stroke="orange" stroke-width="0.05" d="M152.93,-107.65C150.1,-97.07 145.73,-80.76 142.9,-70.21"/>
<text text-anchor="middle" x="145.67" y="-89.63" font-family="monospace" font-size="4.00">37</text>
</g>
<!-- 2&#45;&#45;5 -->
<g id="edge8" class="edge">
<title>2&#45;&#45;5</title>
<path fill="none" stroke="yellow" stroke-width="2" d="M146.28,-111.23C132.36,-101.18 106.5,-82.52 92.71,-72.57"/>
<text text-anchor="middle" x="117.24" y="-92.6" font-family="monospace" font-size="4.00">16</text>
</g>
<!-- 3&#45;&#45;4 -->
<g id="edge11" class="edge">
<title>3&#45;&#45;4</title>
<path fill="none" stroke="orange" stroke-width="0.05" d="M94.76,-95.81C104.77,-87.89 120.88,-75.15 130.97,-67.16"/>
<text text-anchor="middle" x="110.62" y="-82.19" font-family="monospace" font-size="4.00">23</text>
</g>
<!-- 3&#45;&#45;5 -->
<g id="edge12" class="edge">
<title>3&#45;&#45;5</title>
<path fill="none" stroke="orange" stroke-width="0.05" d="M85.14,-92.41C84.83,-87.46 84.47,-81.55 84.16,-76.57"/>
<text text-anchor="middle" x="82.4" y="-85.19" font-family="monospace" font-size="4.00">39</text>
</g>
<!-- 3&#45;&#45;6 -->
<g id="edge13" class="edge">
<title>3&#45;&#45;6</title>
<path fill="none" stroke="yellow" stroke-width="2" d="M90.08,-93.06C97.75,-75.42 113.74,-38.65 121.48,-20.87"/>
<text text-anchor="middle" x="103.53" y="-57.66" font-family="monospace" font-size="4.00">20</text>
</g>
<!-- 3&#45;&#45;7 -->
<g id="edge10" class="edge">
<title>3&#45;&#45;7</title>
<path fill="none" stroke="yellow" stroke-width="2" d="M82.31,-92.55C77.2,-77.36 67.73,-49.2 62.62,-34"/>
<text text-anchor="middle" x="70.21" y="-63.98" font-family="monospace" font-size="4.00">39</text>
</g>
<!-- 4&#45;&#45;5 -->
<g id="edge15" class="edge">
<title>4&#45;&#45;5</title>
<path fill="none" stroke="orange" stroke-width="0.05" d="M127.85,-61.21C118.35,-62.22 105.26,-63.61 95.76,-64.61"/>
<text text-anchor="middle" x="109.56" y="-63.61" font-family="monospace" font-size="4.00">47</text>
</g>
<!-- 4&#45;&#45;6 -->
<g id="edge14" class="edge">
<title>4&#45;&#45;6</title>
<path fill="none" stroke="yellow" stroke-width="2" d="M137.11,-49.49C134.68,-41.16 131.3,-29.53 128.88,-21.2"/>
<text text-anchor="middle" x="130.74" y="-36.05" font-family="monospace" font-size="4.00">20</text>
</g>
<!-- 4&#45;&#45;7 -->
<g id="edge16" class="edge">
<title>4&#45;&#45;7</title>
<path fill="none" stroke="orange" stroke-width="0.05" d="M129.21,-55.02C113.75,-48.09 85.65,-35.51 70.14,-28.56"/>
<text text-anchor="middle" x="97.43" y="-42.49" font-family="monospace" font-size="4.00">47</text>
</g>
<!-- 5&#45;&#45;6 -->
<g id="edge17" class="edge">
<title>5&#45;&#45;6</title>
<path fill="none" stroke="orange" stroke-width="0.05" d="M90.12,-57.3C98.03,-47.01 111.19,-29.88 119.14,-19.53"/>
<text text-anchor="middle" x="102.38" y="-39.12" font-family="monospace" font-size="4.00">33</text>
</g>
<!-- 5&#45;&#45;7 -->
<g id="edge18" class="edge">
<title>5&#45;&#45;7</title>
<path fill="none" stroke="orange" stroke-width="0.05" d="M78.09,-56.53C74.11,-49.62 68.71,-40.26 64.7,-33.29"/>
<text text-anchor="middle" x="69.14" y="-45.61" font-family="monospace" font-size="4.00">30</text>
</g>
<!-- 6&#45;&#45;7 -->
<g id="edge19" class="edge">
<title>6&#45;&#45;7</title>
<path fill="none" stroke="orange" stroke-width="0.05" d="M113.93,-13.09C101.78,-15.43 83.07,-19.03 70.96,-21.36"/>
<text text-anchor="middle" x="90.19" y="-17.93" font-family="monospace" font-size="4.00">49</text>
</g>
</g>
</svg>
