<?xml version="1.0" encoding="UTF-8" standalone="no"?>
<!DOCTYPE svg PUBLIC "-//W3C//DTD SVG 1.1//EN"
 "http://www.w3.org/Graphics/SVG/1.1/DTD/svg11.dtd">
<!-- Generated by graphviz version 9.0.0 (20230911.1827)
 -->
<!-- Title: G Pages: 1 -->
<svg width="219pt" height="137pt"
 viewBox="0.00 0.00 218.60 136.84" xmlns="http://www.w3.org/2000/svg" xmlns:xlink="http://www.w3.org/1999/xlink">
<g id="graph0" class="graph" transform="scale(1 1) rotate(0) translate(4 132.84)">
<title>G</title>
<polygon fill="white" stroke="none" points="-4,4 -4,-132.84 214.6,-132.84 214.6,4 -4,4"/>
<!-- 0 -->
<g id="node1" class="node">
<title>0</title>
<ellipse fill="none" stroke="orangered" stroke-width="0.1" cx="10.17" cy="-83.4" rx="10.17" ry="10.8"/>
<text text-anchor="middle" x="10.17" y="-82.05" font-family="monospace" font-size="3.00" fill="mediumslateblue">0</text>
</g>
<!-- 3 -->
<g id="node4" class="node">
<title>3</title>
<ellipse fill="none" stroke="orangered" stroke-width="0.1" cx="83.48" cy="-102.92" rx="10.17" ry="10.8"/>
<text text-anchor="middle" x="83.48" y="-101.57" font-family="monospace" font-size="3.00" fill="mediumslateblue">3</text>
</g>
<!-- 0&#45;&#45;3 -->
<g id="edge3" class="edge">
<title>0&#45;&#45;3</title>
<path fill="none" stroke="gray" stroke-width="0.1" d="M19.75,-85.95C33.73,-89.67 59.56,-96.55 73.66,-100.3"/>
<text text-anchor="middle" x="45.21" y="-93.48" font-family="monospace" font-size="2.00">34</text>
</g>
<!-- 5 -->
<g id="node6" class="node">
<title>5</title>
<ellipse fill="none" stroke="orangered" stroke-width="0.1" cx="81.19" cy="-65.92" rx="10.17" ry="10.8"/>
<text text-anchor="middle" x="81.19" y="-64.57" font-family="monospace" font-size="3.00" fill="mediumslateblue">5</text>
</g>
<!-- 0&#45;&#45;5 -->
<g id="edge1" class="edge">
<title>0&#45;&#45;5</title>
<path fill="none" stroke="gray" stroke-width="0.1" d="M20.04,-80.97C33.61,-77.63 57.87,-71.66 71.4,-68.33"/>
<text text-anchor="middle" x="44.22" y="-75" font-family="monospace" font-size="2.00">43</text>
</g>
<!-- 7 -->
<g id="node8" class="node">
<title>7</title>
<ellipse fill="none" stroke="orangered" stroke-width="0.1" cx="56.83" cy="-23.63" rx="10.17" ry="10.8"/>
<text text-anchor="middle" x="56.83" y="-22.28" font-family="monospace" font-size="3.00" fill="mediumslateblue">7</text>
</g>
<!-- 0&#45;&#45;7 -->
<g id="edge2" class="edge">
<title>0&#45;&#45;7</title>
<path fill="none" stroke="gray" stroke-width="0.1" d="M16.65,-75.09C25.57,-63.67 41.51,-43.26 50.39,-31.87"/>
<text text-anchor="middle" x="32.02" y="-53.83" font-family="monospace" font-size="2.00">29</text>
</g>
<!-- 1 -->
<g id="node2" class="node">
<title>1</title>
<ellipse fill="none" stroke="orangered" stroke-width="0.1" cx="200.43" cy="-47.4" rx="10.17" ry="10.8"/>
<text text-anchor="middle" x="200.43" y="-46.05" font-family="monospace" font-size="3.00" fill="mediumslateblue">1</text>
</g>
<!-- 2 -->
<g id="node3" class="node">
<title>2</title>
<ellipse fill="none" stroke="orangered" stroke-width="0.1" cx="153.41" cy="-118.04" rx="10.17" ry="10.8"/>
<text text-anchor="middle" x="153.41" y="-116.69" font-family="monospace" font-size="3.00" fill="mediumslateblue">2</text>
</g>
<!-- 1&#45;&#45;2 -->
<g id="edge4" class="edge">
<title>1&#45;&#45;2</title>
<path fill="none" stroke="gray" stroke-width="0.1" d="M194.66,-56.06C185.64,-69.62 168.28,-95.71 159.22,-109.31"/>
<text text-anchor="middle" x="175.44" y="-83.03" font-family="monospace" font-size="2.00">24</text>
</g>
<!-- 4 -->
<g id="node5" class="node">
<title>4</title>
<ellipse fill="none" stroke="orangered" stroke-width="0.1" cx="137.83" cy="-59.91" rx="10.17" ry="10.8"/>
<text text-anchor="middle" x="137.83" y="-58.56" font-family="monospace" font-size="3.00" fill="mediumslateblue">4</text>
</g>
<!-- 1&#45;&#45;4 -->
<g id="edge5" class="edge">
<title>1&#45;&#45;4</title>
<path fill="none" stroke="gray" stroke-width="0.1" d="M190.65,-49.35C178.96,-51.69 159.5,-55.58 147.75,-57.93"/>
<text text-anchor="middle" x="167.7" y="-53.99" font-family="monospace" font-size="2.00">43</text>
</g>
<!-- 6 -->
<g id="node7" class="node">
<title>6</title>
<ellipse fill="none" stroke="orangered" stroke-width="0.1" cx="123.55" cy="-10.8" rx="10.17" ry="10.8"/>
<text text-anchor="middle" x="123.55" y="-9.45" font-family="monospace" font-size="3.00" fill="mediumslateblue">6</text>
</g>
<!-- 1&#45;&#45;6 -->
<g id="edge6" class="edge">
<title>1&#45;&#45;6</title>
<path fill="none" stroke="gray" stroke-width="0.1" d="M191.31,-43.06C176.51,-36.01 147.44,-22.18 132.66,-15.14"/>
<text text-anchor="middle" x="160.48" y="-29.45" font-family="monospace" font-size="2.00">25</text>
</g>
<!-- 2&#45;&#45;3 -->
<g id="edge7" class="edge">
<title>2&#45;&#45;3</title>
<path fill="none" stroke="gray" stroke-width="0.1" d="M143.69,-115.94C130.33,-113.05 106.44,-107.88 93.12,-105"/>
<text text-anchor="middle" x="116.9" y="-110.82" font-family="monospace" font-size="2.00">40</text>
</g>
<!-- 2&#45;&#45;4 -->
<g id="edge9" class="edge">
<title>2&#45;&#45;4</title>
<path fill="none" stroke="gray" stroke-width="0.1" d="M150.7,-107.92C147.84,-97.25 143.36,-80.54 140.51,-69.92"/>
<text text-anchor="middle" x="144.1" y="-89.27" font-family="monospace" font-size="2.00">37</text>
</g>
<!-- 2&#45;&#45;5 -->
<g id="edge8" class="edge">
<title>2&#45;&#45;5</title>
<path fill="none" stroke="gray" stroke-width="0.1" d="M145.12,-112.06C131.19,-102.01 103.24,-81.83 89.38,-71.83"/>
<text text-anchor="middle" x="115.75" y="-92.29" font-family="monospace" font-size="2.00">16</text>
</g>
<!-- 3&#45;&#45;4 -->
<g id="edge11" class="edge">
<title>3&#45;&#45;4</title>
<path fill="none" stroke="gray" stroke-width="0.1" d="M91.5,-96.57C101.78,-88.44 119.49,-74.42 129.78,-66.28"/>
<text text-anchor="middle" x="109.14" y="-81.77" font-family="monospace" font-size="2.00">23</text>
</g>
<!-- 3&#45;&#45;5 -->
<g id="edge12" class="edge">
<title>3&#45;&#45;5</title>
<path fill="none" stroke="gray" stroke-width="0.1" d="M82.83,-92.41C82.52,-87.46 82.16,-81.55 81.85,-76.57"/>
<text text-anchor="middle" x="80.84" y="-84.84" font-family="monospace" font-size="2.00">39</text>
</g>
<!-- 3&#45;&#45;6 -->
<g id="edge13" class="edge">
<title>3&#45;&#45;6</title>
<path fill="none" stroke="gray" stroke-width="0.1" d="M87.62,-93.4C95.3,-75.75 111.67,-38.11 119.37,-20.4"/>
<text text-anchor="middle" x="102" y="-57.25" font-family="monospace" font-size="2.00">20</text>
</g>
<!-- 3&#45;&#45;7 -->
<g id="edge10" class="edge">
<title>3&#45;&#45;7</title>
<path fill="none" stroke="gray" stroke-width="0.1" d="M80.11,-92.87C74.98,-77.62 65.29,-48.8 60.17,-33.59"/>
<text text-anchor="middle" x="68.64" y="-63.58" font-family="monospace" font-size="2.00">39</text>
</g>
<!-- 4&#45;&#45;5 -->
<g id="edge15" class="edge">
<title>4&#45;&#45;5</title>
<path fill="none" stroke="gray" stroke-width="0.1" d="M127.96,-60.95C117.57,-62.06 101.3,-63.78 90.94,-64.88"/>
<text text-anchor="middle" x="107.95" y="-63.27" font-family="monospace" font-size="2.00">47</text>
</g>
<!-- 4&#45;&#45;6 -->
<g id="edge14" class="edge">
<title>4&#45;&#45;6</title>
<path fill="none" stroke="gray" stroke-width="0.1" d="M134.94,-49.97C132.49,-41.56 129,-29.56 126.53,-21.06"/>
<text text-anchor="middle" x="129.24" y="-35.87" font-family="monospace" font-size="2.00">20</text>
</g>
<!-- 4&#45;&#45;7 -->
<g id="edge16" class="edge">
<title>4&#45;&#45;7</title>
<path fill="none" stroke="gray" stroke-width="0.1" d="M128.54,-55.75C112.91,-48.75 81.56,-34.71 66.01,-27.75"/>
<text text-anchor="middle" x="95.77" y="-42.1" font-family="monospace" font-size="2.00">47</text>
</g>
<!-- 5&#45;&#45;6 -->
<g id="edge17" class="edge">
<title>5&#45;&#45;6</title>
<path fill="none" stroke="gray" stroke-width="0.1" d="M87.44,-57.78C95.45,-47.36 109.25,-29.4 117.27,-18.97"/>
<text text-anchor="middle" x="100.85" y="-38.72" font-family="monospace" font-size="2.00">33</text>
</g>
<!-- 5&#45;&#45;7 -->
<g id="edge18" class="edge">
<title>5&#45;&#45;7</title>
<path fill="none" stroke="gray" stroke-width="0.1" d="M76.02,-56.95C71.89,-49.77 66.12,-39.76 61.99,-32.59"/>
<text text-anchor="middle" x="67.5" y="-45.12" font-family="monospace" font-size="2.00">30</text>
</g>
<!-- 6&#45;&#45;7 -->
<g id="edge19" class="edge">
<title>6&#45;&#45;7</title>
<path fill="none" stroke="gray" stroke-width="0.1" d="M113.7,-12.69C101.09,-15.12 79.35,-19.3 66.71,-21.73"/>
<text text-anchor="middle" x="88.71" y="-17.56" font-family="monospace" font-size="2.00">49</text>
</g>
</g>
</svg>
